<?xml version="1.0" encoding="utf-8"?>
<!-- Generator: Adobe Illustrator 23.0.1, SVG Export Plug-In . SVG Version: 6.00 Build 0)  -->
<svg version="1.1" id="Layer_1" xmlns="http://www.w3.org/2000/svg" xmlns:xlink="http://www.w3.org/1999/xlink" x="0px" y="0px"
	 viewBox="0 0 512 512" style="enable-background:new 0 0 512 512;" xml:space="preserve">
<style type="text/css">
	.st0{fill:none;stroke:#3880FF;stroke-width:28;stroke-linecap:round;stroke-linejoin:round;stroke-miterlimit:10;}
	.st1{fill:none;stroke:#3880FF;stroke-width:32;stroke-linejoin:round;stroke-miterlimit:10;}
	.st2{fill:none;stroke:#3880FF;stroke-width:32;stroke-linecap:round;stroke-linejoin:round;stroke-miterlimit:10;}
	.st3{fill:#3880FF;}
</style>
<path class="st0" d="M350,268.7c1.3,6.2,2,12.7,2,19.3c0,53-43,96-96,96s-96-43-96-96s43-96,96-96c5.8,0,11.5,0.5,17,1.5"/>
<g>
	<g>
		<path class="st1" d="M417,128H89c-22.1,0-40,17.9-40,40v240c0,22,18,40,40,40h336c22,0,40-18,40-40V176
			C465,149.6,443.4,128,417,128z"/>
	</g>
	<path class="st2" d="M337,128c0,0,0-26.7,0-40v0c0-13.3-10.7-24-24-24H201c-13.3,0-24,10.7-24,24v40"/>
</g>
<path class="st3" d="M256,332c-24.3,0-44-19.7-44-44s19.7-44,44-44c24.3,0,44,19.7,44,44S280.3,332,256,332z M256,288L256,288
	C256,288,256,288,256,288z"/>
<path class="st3" d="M324.8,244.8c-14.1,0-25.6-11.5-25.6-25.6s11.5-25.6,25.6-25.6s25.6,11.5,25.6,25.6S338.9,244.8,324.8,244.8z"
	/>
</svg>
