<svg width="290" height="38" fill="none" xmlns="http://www.w3.org/2000/svg"><path d="M13.354 30.448c-1.475 0-2.847-.261-4.116-.784a10.472 10.472 0 01-3.332-2.24 10.713 10.713 0 01-2.212-3.332c-.523-1.27-.784-2.641-.784-4.116 0-1.475.261-2.847.784-4.116a10.713 10.713 0 012.212-3.332 10.1 10.1 0 013.332-2.212c1.27-.541 2.641-.812 4.116-.812 1.568 0 2.968.29 4.2.868a9.42 9.42 0 013.22 2.408l-2.156 2.1c-.672-.803-1.437-1.41-2.296-1.82-.84-.43-1.82-.644-2.94-.644-1.344 0-2.576.317-3.696.952-1.12.616-2.016 1.493-2.688 2.632-.653 1.12-.98 2.445-.98 3.976 0 1.53.327 2.865.98 4.004a7.27 7.27 0 002.688 2.632c1.12.616 2.352.924 3.696.924 1.213 0 2.287-.252 3.22-.756a8.318 8.318 0 002.52-2.072l2.212 2.128a10.264 10.264 0 01-3.444 2.632c-1.344.653-2.856.98-4.536.98zM24.304 30V9.952h3.024v5.488l-.168 2.24h.168c.392-.69.99-1.26 1.792-1.708a5.402 5.402 0 012.716-.7c1.773 0 3.108.532 4.004 1.596.896 1.045 1.344 2.417 1.344 4.116V30h-2.996v-8.624c0-1.157-.308-1.997-.924-2.52-.598-.541-1.335-.812-2.212-.812a3.18 3.18 0 00-1.932.616 4.19 4.19 0 00-1.316 1.624 4.744 4.744 0 00-.476 2.1V30h-3.024zm23.148.448c-1.4 0-2.65-.327-3.752-.98a7.063 7.063 0 01-2.604-2.688c-.616-1.139-.924-2.436-.924-3.892 0-1.363.299-2.623.896-3.78a7.15 7.15 0 012.492-2.772c1.083-.71 2.324-1.064 3.724-1.064 1.475 0 2.725.317 3.752.952a6.17 6.17 0 012.38 2.604c.541 1.101.812 2.343.812 3.724 0 .205-.01.392-.028.56 0 .168-.01.299-.028.392H43.14c.15 1.419.644 2.483 1.484 3.192.859.71 1.83 1.064 2.912 1.064.97 0 1.773-.215 2.408-.644a5.108 5.108 0 001.512-1.652l2.492 1.204a7.727 7.727 0 01-2.52 2.744c-1.064.69-2.39 1.036-3.976 1.036zm-.14-12.6c-1.008 0-1.867.308-2.576.924-.71.616-1.185 1.437-1.428 2.464h7.924c-.037-.485-.196-.99-.476-1.512-.28-.523-.71-.961-1.288-1.316-.56-.373-1.279-.56-2.156-.56zm16.766 12.6c-1.437 0-2.706-.327-3.808-.98a7.065 7.065 0 01-2.604-2.688c-.634-1.157-.952-2.464-.952-3.92s.318-2.753.952-3.892a7.011 7.011 0 012.604-2.716c1.102-.653 2.37-.98 3.808-.98 1.587 0 2.922.355 4.004 1.064a5.848 5.848 0 012.352 2.884l-2.744 1.12c-.653-1.53-1.876-2.296-3.668-2.296a3.97 3.97 0 00-2.156.616c-.653.392-1.176.952-1.568 1.68-.392.71-.588 1.55-.588 2.52s.196 1.82.588 2.548c.392.728.915 1.288 1.568 1.68a4.112 4.112 0 002.156.588c.915 0 1.69-.205 2.324-.616a4.347 4.347 0 001.484-1.736l2.688 1.176c-.504 1.139-1.306 2.081-2.408 2.828-1.101.747-2.445 1.12-4.032 1.12zM73.411 30V9.952h3.024v11.816l6.048-6.048h3.752v.168l-5.516 5.46 5.712 8.484V30h-3.584l-4.256-6.552-2.156 2.128V30H73.41zm21.512.448c-1.475 0-2.772-.336-3.892-1.008a7.207 7.207 0 01-2.632-2.716c-.635-1.139-.952-2.427-.952-3.864 0-1.419.317-2.697.952-3.836a7.15 7.15 0 012.632-2.744c1.12-.672 2.417-1.008 3.892-1.008 1.456 0 2.744.336 3.864 1.008a7.154 7.154 0 012.632 2.744c.635 1.139.952 2.417.952 3.836 0 1.437-.317 2.725-.952 3.864a7.21 7.21 0 01-2.632 2.716c-1.12.672-2.408 1.008-3.864 1.008zm0-2.772c.784 0 1.512-.187 2.184-.56a4.452 4.452 0 001.624-1.652c.43-.728.644-1.596.644-2.604s-.215-1.867-.644-2.576c-.41-.728-.952-1.279-1.624-1.652a4.26 4.26 0 00-2.184-.588 4.41 4.41 0 00-2.212.588c-.672.373-1.223.924-1.652 1.652-.41.71-.616 1.568-.616 2.576s.205 1.876.616 2.604c.43.71.98 1.26 1.652 1.652.69.373 1.428.56 2.212.56zm15.576 2.772c-1.754 0-3.08-.523-3.976-1.568-.877-1.064-1.316-2.501-1.316-4.312V15.72h3.024v8.428c0 1.213.28 2.11.84 2.688.579.56 1.298.84 2.156.84.766 0 1.428-.196 1.988-.588a3.956 3.956 0 001.316-1.568 4.796 4.796 0 00.476-2.128V15.72h2.996V30h-2.828v-1.932h-.168c-.41.672-1.026 1.241-1.848 1.708-.802.448-1.689.672-2.66.672zm13.011-4.592v-7.504h-2.492V15.72h2.492v-4.032h3.024v4.032h3.5v2.632h-3.5v6.86c0 .71.14 1.25.42 1.624.299.373.794.56 1.484.56.355 0 .654-.047.896-.14.262-.093.523-.224.784-.392v2.94c-.317.13-.653.233-1.008.308a6.178 6.178 0 01-1.26.112c-1.325 0-2.38-.383-3.164-1.148-.784-.784-1.176-1.857-1.176-3.22zM143.067 30l-4.564-14.28h3.276l2.94 10.276h.112l3.22-10.276h3.108l3.22 10.276h.112l2.94-10.276h3.22L156.059 30h-3.164l-3.304-10.332h-.112L146.203 30h-3.136zm21.571-16.38c-.56 0-1.045-.196-1.456-.588a2.038 2.038 0 01-.588-1.456c0-.56.196-1.036.588-1.428a2.039 2.039 0 011.456-.588c.56 0 1.036.196 1.428.588a1.9 1.9 0 01.616 1.428 1.99 1.99 0 01-.616 1.456 1.944 1.944 0 01-1.428.588zM163.126 30V15.72h3.024V30h-3.024zm8.452-4.144v-7.504h-2.492V15.72h2.492v-4.032h3.024v4.032h3.5v2.632h-3.5v6.86c0 .71.14 1.25.42 1.624.298.373.793.56 1.484.56.354 0 .653-.047.896-.14.261-.093.522-.224.784-.392v2.94a5.79 5.79 0 01-1.008.308 6.191 6.191 0 01-1.26.112c-1.326 0-2.38-.383-3.164-1.148-.784-.784-1.176-1.857-1.176-3.22zM181.44 30V9.952h3.024v5.488l-.168 2.24h.168c.392-.69.989-1.26 1.792-1.708a5.399 5.399 0 012.716-.7c1.773 0 3.108.532 4.004 1.596.896 1.045 1.344 2.417 1.344 4.116V30h-2.996v-8.624c0-1.157-.308-1.997-.924-2.52-.598-.541-1.335-.812-2.212-.812a3.18 3.18 0 00-1.932.616c-.56.41-.999.952-1.316 1.624a4.734 4.734 0 00-.476 2.1V30h-3.024z" fill="#fff"/><g fill-rule="evenodd" clip-rule="evenodd"><path d="M246.529 9.347v8.166h5.036c1.2 0 2.192-.403 2.976-1.21.806-.804 1.209-1.764 1.209-2.874 0-1.088-.403-2.037-1.209-2.843-.784-.827-1.776-1.241-2.976-1.241h-5.036v.002zm0 11.04v9.473h-3.008V6.472h7.978c2.028 0 3.749.676 5.167 2.025 1.439 1.35 2.158 2.994 2.158 4.932 0 1.982-.719 3.638-2.158 4.965-1.396 1.329-3.119 1.991-5.167 1.991h-4.97v.002zm15.335 4.573c0 .784.333 1.438.998 1.96.665.523 1.444.784 2.338.784 1.265 0 2.391-.469 3.384-1.404.992-.937 1.487-2.036 1.487-3.298-.938-.74-2.246-1.11-3.924-1.11-1.222 0-2.24.295-3.057.883-.817.587-1.226 1.314-1.226 2.185m3.892-11.628c2.224 0 3.979.593 5.266 1.78 1.286 1.187 1.928 2.815 1.928 4.883v9.865h-2.877v-2.221h-.131c-1.243 1.829-2.9 2.744-4.97 2.744-1.766 0-3.244-.523-4.431-1.568-1.188-1.046-1.782-2.352-1.782-3.92 0-1.656.626-2.972 1.879-3.952 1.254-.98 2.927-1.47 5.02-1.47 1.786 0 3.258.326 4.413.98v-.687c0-1.046-.415-1.932-1.242-2.662a4.264 4.264 0 00-2.91-1.094c-1.68 0-3.008.708-3.989 2.124l-2.65-1.666c1.461-2.091 3.619-3.136 6.476-3.136m23.707.522l-10.039 23.061h-3.106l3.728-8.069-6.606-14.992h3.27l4.774 11.498h.066l4.643-11.498h3.27z" fill="#fff"/><path d="M234.373 18.345c0-.946-.08-1.859-.232-2.732h-12.687v5.175h7.266a6.22 6.22 0 01-2.687 4.084v3.362h4.337c2.54-2.34 4.003-5.8 4.003-9.889" fill="#4285F4"/><path d="M221.454 31.478c3.63 0 6.687-1.19 8.916-3.244l-4.337-3.362c-1.207.812-2.761 1.287-4.579 1.287-3.51 0-6.488-2.363-7.553-5.548h-4.468v3.463c2.214 4.39 6.764 7.404 12.021 7.404" fill="#34A853"/><path d="M213.901 20.611a8.062 8.062 0 010-5.144v-3.463h-4.468A13.363 13.363 0 00208 18.04c0 2.17.518 4.22 1.433 6.035l4.468-3.463z" fill="#FABB05"/><path d="M221.454 9.92c1.982 0 3.759.68 5.161 2.015v.002l3.84-3.835c-2.332-2.17-5.373-3.502-9.001-3.502-5.257 0-9.807 3.014-12.021 7.405l4.468 3.462c1.065-3.184 4.043-5.547 7.553-5.547" fill="#E94235"/></g></svg>